<svg height="512" viewBox="0 0 61 61" width="512" xmlns="http://www.w3.org/2000/svg"><g id="071---Add-To-Cart"><path id="Shape" d="m45 28h-3c-.5522847 0-1 .4477153-1 1s.4477153 1 1 1h3c.5522847 0 1-.4477153 1-1s-.4477153-1-1-1z"/><path id="Shape" d="m57 20h-5v-11c0-3.86599325-3.1340068-7-7-7h-1.18c-.4227483-1.1957287-1.5517451-1.99643563-2.82-2h-22c-1.2682549.00356437-2.3972517.8042713-2.82 2h-1.18c-3.8659932 0-7 3.13400675-7 7v11h-5c-1.65685425 0-3 1.3431458-3 3v4c0 1.6568542 1.34314575 3 3 3h.23l6 22.3c.58894675 2.1873029 2.5748018 3.7054152 4.84 3.7h22.15c3.5986576 3.7188732 8.9552798 5.1492846 13.9288158 3.7194965s8.7527098-5.4865508 9.8269795-10.5487933c1.0742696-5.0622424-.7315983-10.3042191-4.6957953-13.6307032l1.49-5.54h.23c1.6568542 0 3-1.3431458 3-3v-4c0-1.6568542-1.3431458-3-3-3zm-38-18h22c.5522847 0 1 .44771525 1 1s-.4477153 1-1 1h-22c-.5522847 0-1-.44771525-1-1s.4477153-1 1-1zm-9 7c0-2.76142375 2.2385763-5 5-5h1.18c.4227483 1.1957287 1.5517451 1.99643563 2.82 2h22c1.2682549-.00356437 2.3972517-.8042713 2.82-2h1.18c2.7614237 0 5 2.23857625 5 5v11h-40zm48 37c0 6.627417-5.372583 12-12 12s-12-5.372583-12-12 5.372583-12 12-12 12 5.372583 12 12zm-26 1c0 1.1045695-.8954305 2-2 2s-2-.8954305-2-2v-10c0-1.1045695.8954305-2 2-2s2 .8954305 2 2zm26-20c0 .5522847-.4477153 1-1 1h-6c-.5522847 0-1 .4477153-1 1s.4477153 1 1 1h3.7l-1.14 4.23c-3.1884844-2.0410902-7.0676689-2.7038619-10.7529562-1.8371788-3.6852872.8666831-6.8624738 3.1889286-8.8070438 6.4371788v-1.83c0-2.209139-1.790861-4-4-4s-4 1.790861-4 4v10c.018611 1.5502606.9313791 2.9501474 2.3424192 3.5925025s3.0661906.4114753 4.2475808-.5925025c.4318665 1.4272235 1.086612 2.7772144 1.94 4h-20.46c-1.357633.0014362-2.547016-.9090569-2.9-2.22l-5.87-21.78h31.7c.5522847 0 1-.4477153 1-1s-.4477153-1-1-1h-34c-.55228475 0-1-.4477153-1-1v-4c0-.5522847.44771525-1 1-1h54c.5522847 0 1 .4477153 1 1z"/><path id="Shape" d="m46 38c.5522847 0 1-.4477153 1-1s-.4477153-1-1-1c-5.5228475 0-10 4.4771525-10 10 0 .5522847.4477153 1 1 1s1-.4477153 1-1c0-2.1217319.8428547-4.1565632 2.3431458-5.6568542 1.500291-1.5002911 3.5351223-2.3431458 5.6568542-2.3431458z"/><path id="Shape" d="m54 46c0 4.418278-3.581722 8-8 8-.5522847 0-1 .4477153-1 1s.4477153 1 1 1c5.5228475 0 10-4.4771525 10-10 0-.5522847-.4477153-1-1-1s-1 .4477153-1 1z"/><path id="Shape" d="m18 33c-2.209139 0-4 1.790861-4 4v10c0 2.209139 1.790861 4 4 4s4-1.790861 4-4v-10c0-2.209139-1.790861-4-4-4zm2 14c0 1.1045695-.8954305 2-2 2s-2-.8954305-2-2v-10c0-1.1045695.8954305-2 2-2s2 .8954305 2 2z"/><path id="Shape" d="m45 51c0 .5522847.4477153 1 1 1s1-.4477153 1-1v-4h4c.5522847 0 1-.4477153 1-1s-.4477153-1-1-1h-4v-4c0-.5522847-.4477153-1-1-1s-1 .4477153-1 1v4h-4c-.5522847 0-1 .4477153-1 1s.4477153 1 1 1h4z"/></g></svg>