<?xml version="1.0" encoding="iso-8859-1"?>
<!-- Generator: Adobe Illustrator 19.0.0, SVG Export Plug-In . SVG Version: 6.00 Build 0)  -->
<svg version="1.1" id="Capa_1" xmlns="http://www.w3.org/2000/svg" xmlns:xlink="http://www.w3.org/1999/xlink" x="0px" y="0px"
	 viewBox="0 0 491.52 491.52" style="enable-background:new 0 0 491.52 491.52;" xml:space="preserve">
<circle style="fill:#334D5C;" cx="245.76" cy="245.76" r="245.76"/>
<path style="fill:#FCD462;" d="M379.562,179.345H111.957c-3.865,0-6.997,3.135-6.997,7.002v52.335c0,3.867,3.132,7.002,6.997,7.002
	h267.604c3.864,0,6.998-3.135,6.998-7.002v-52.335C386.56,182.48,383.426,179.345,379.562,179.345z"/>
<path style="fill:#F6C358;" d="M112.012,245.683l25.236,128.796c1.376,7.018,7.523,12.081,14.672,12.081H339.6
	c7.149,0,13.296-5.063,17.975-29.682l21.987-111.195H112.012z"/>
<polygon style="fill:#DC8744;" points="379.508,245.683 112.657,245.683 372.649,279.944 "/>
<path style="fill:#F6C358;" d="M112.657,245.683h-0.645l25.236,128.796c1.376,7.018,7.523,12.081,14.672,12.081H339.6
	c7.149,0,13.296-5.063,14.672-12.081l18.377-94.535L112.657,245.683z"/>
<g>
	<path style="fill:#FCD462;" d="M168.211,277.987h-0.001c-3.721,0-6.737,3.018-6.737,6.742v68.863c0,3.723,3.016,6.742,6.737,6.742
		h0.001c3.721,0,6.738-3.019,6.738-6.742v-68.863C174.949,281.005,171.932,277.987,168.211,277.987z"/>
	<path style="fill:#FCD462;" d="M205.27,277.987L205.27,277.987c-3.722,0-6.738,3.018-6.738,6.742v68.863
		c0,3.723,3.016,6.742,6.737,6.742h0.001c3.721,0,6.738-3.019,6.738-6.742v-68.863C212.009,281.005,208.992,277.987,205.27,277.987z
		"/>
	<path style="fill:#FCD462;" d="M242.331,277.987L242.331,277.987c-3.722,0-6.738,3.018-6.738,6.742v68.863
		c0,3.723,3.016,6.742,6.737,6.742h0.001c3.721,0,6.738-3.019,6.738-6.742v-68.863C249.068,281.005,246.052,277.987,242.331,277.987
		z"/>
	<path style="fill:#FCD462;" d="M279.391,277.987L279.391,277.987c-3.722,0-6.738,3.018-6.738,6.742v68.863
		c0,3.723,3.016,6.742,6.738,6.742h0.001c3.721,0,6.738-3.019,6.738-6.742v-68.863C286.129,281.005,283.112,277.987,279.391,277.987
		z"/>
	<path style="fill:#FCD462;" d="M316.45,277.987L316.45,277.987c-3.722,0-6.738,3.018-6.738,6.742v68.863
		c0,3.723,3.016,6.742,6.737,6.742h0.001c3.722,0,6.738-3.019,6.738-6.742v-68.863C323.189,281.005,320.172,277.987,316.45,277.987z
		"/>
</g>
<ellipse transform="matrix(-0.576 -0.8175 0.8175 -0.576 340.2572 434.7283)" style="fill:#D15241;" cx="282.88" cy="129.114" rx="24.156" ry="24.151"/>
<ellipse transform="matrix(-0.5759 -0.8175 0.8175 -0.5759 364.2861 612.0397)" style="fill:#DC8744;" cx="340.885" cy="211.536" rx="19.645" ry="19.64"/>
<path style="fill:#EBF0F3;" d="M277.263,121.167c-5.699,4.015-7.066,11.892-3.053,17.593l55.458,78.802
	c4.013,5.702,11.885,7.07,17.584,3.055c5.699-4.015,7.066-11.892,3.053-17.594l-55.458-78.802
	C290.835,118.52,282.962,117.152,277.263,121.167z"/>
<ellipse transform="matrix(-0.8175 -0.5759 0.5759 -0.8175 304.882 354.8391)" style="fill:#D15241;" cx="208.664" cy="129.112" rx="24.151" ry="24.156"/>
<ellipse transform="matrix(-0.8175 -0.5759 0.5759 -0.8175 151.9247 471.286)" style="fill:#DC8744;" cx="150.635" cy="211.571" rx="19.64" ry="19.645"/>
<path style="fill:#EBF0F3;" d="M214.256,121.167c5.699,4.015,7.066,11.892,3.053,17.593l-55.459,78.802
	c-4.013,5.702-11.885,7.07-17.584,3.055c-5.699-4.015-7.066-11.892-3.053-17.594l55.458-78.802
	C200.684,118.52,208.557,117.152,214.256,121.167z"/>
<g>
</g>
<g>
</g>
<g>
</g>
<g>
</g>
<g>
</g>
<g>
</g>
<g>
</g>
<g>
</g>
<g>
</g>
<g>
</g>
<g>
</g>
<g>
</g>
<g>
</g>
<g>
</g>
<g>
</g>
</svg>
