<?xml version="1.0" encoding="iso-8859-1"?>
<!-- Generator: Adobe Illustrator 19.0.0, SVG Export Plug-In . SVG Version: 6.00 Build 0)  -->
<svg version="1.1" id="Capa_1" xmlns="http://www.w3.org/2000/svg" xmlns:xlink="http://www.w3.org/1999/xlink" x="0px" y="0px"
	 viewBox="0 0 512.001 512.001" style="enable-background:new 0 0 512.001 512.001;" xml:space="preserve">
<path style="fill:#B4CBDB;" d="M337.268,308.417h-17.37c-4.143,0-7.5-3.358-7.5-7.5s3.357-7.5,7.5-7.5h17.37
	c11.311,0,21.187-7.723,24.603-19.225l8.442-31.707c1.064-4.002,5.177-6.384,9.177-5.318c4.003,1.066,6.384,5.174,5.317,9.177
	l-8.468,31.805c-0.016,0.062-0.033,0.123-0.051,0.184C371.003,296.327,355.322,308.417,337.268,308.417z"/>
<path style="fill:#FFC599;" d="M128.64,252.095h24.966v-47.384H128.64c-13.085,0-23.692,10.607-23.692,23.692l0,0
	C104.948,241.488,115.555,252.095,128.64,252.095z"/>
<path style="fill:#ED6161;" d="M359.225,188.744c-4.351,0-8.523,0.787-12.389,2.228c0,18.936,0,40.457,0,61.993v7.896
	c3.868,1.443,8.034,2.247,12.389,2.247c20.031,0,36.269-16.647,36.269-37.182C395.495,205.391,379.256,188.744,359.225,188.744z"/>
<path style="fill:#81EBC7;" d="M338.768,359.215l-64.711-23.229c-15.371-5.517-32.3-5.517-47.671,0l-64.711,23.229
	c-26.933,9.668-45.029,35.391-45.029,64.007V498.3c0,7.555,6.146,13.701,13.701,13.701h239.75c7.555,0,13.701-6.146,13.701-13.701
	v-75.078C383.797,394.606,365.701,368.883,338.768,359.215z"/>
<path style="fill:#E6EFF5;" d="M280.321,475.404v36.597h-60.2v-36.597c0-6.365,5.159-11.524,11.524-11.524h37.152
	C275.162,463.879,280.321,469.039,280.321,475.404z"/>
<path style="fill:#50B596;" d="M338.768,359.215l-64.711-23.229c-11.723-4.208-24.352-5.196-36.506-2.985
	c3.781,0.688,7.518,1.676,11.165,2.985l64.711,23.229c26.933,9.668,45.029,35.391,45.029,64.007V498.3
	c0,7.555-6.146,13.701-13.701,13.701h25.341c7.555,0,13.701-6.146,13.701-13.701v-75.078
	C383.797,394.606,365.701,368.883,338.768,359.215z"/>
<g>
	<path style="fill:#3A3B4A;" d="M250.222,471.379c-4.143,0-7.5-3.358-7.5-7.5v-12.348c0-4.142,3.357-7.5,7.5-7.5s7.5,3.358,7.5,7.5
		v12.348C257.722,468.022,254.364,471.379,250.222,471.379z"/>
	<path style="fill:#3A3B4A;" d="M250.222,459.032c-2.701,0-5.194-1.453-6.526-3.804l-57.224-101.031
		c-2.041-3.604-0.774-8.181,2.83-10.222c3.605-2.041,8.181-0.773,10.223,2.83l50.697,89.509l50.697-89.509
		c2.042-3.605,6.617-4.872,10.223-2.83c3.604,2.042,4.871,6.618,2.83,10.222l-57.224,101.031
		C255.416,457.579,252.923,459.032,250.222,459.032z"/>
</g>
<path style="fill:#ED6161;" d="M192.998,374.646v25.184c0,9.517,10.973,14.844,18.451,8.957l38.772-30.525l38.772,30.525
	c7.478,5.887,18.451,0.561,18.451-8.957v-25.184c0-19.125-10.579-36.68-27.488-45.616l-7.634-4.034
	c-13.829-7.308-30.376-7.308-44.205,0l-7.634,4.034C203.576,337.966,192.998,355.521,192.998,374.646z"/>
<path style="fill:#F0B27D;" d="M217.482,293.367v59.174c0,18.081,14.658,32.739,32.739,32.739l0,0
	c18.081,0,32.739-14.658,32.739-32.739v-59.174L217.482,293.367L217.482,293.367z"/>
<path style="fill:#935D38;" d="M357.514,44.293c-1.247-0.841-1.177-2.694,0.128-3.442c3.064-1.755,8.063-4.605,12.432-7.028
	c2.652-1.471,2.805-5.213,0.299-6.92c-24.347-16.582-92.787-15.342-120.64-3.744c-1.736,0.723-3.443-1.075-2.608-2.76
	c3.825-7.717,7.984-18.741,2.081-20.304c-7.618-2.016-60.797,28.416-72.055,42.918c-15.803-5.305-36.704-1.68-47.535,3.413
	c-2.642,1.243-3.174,4.781-0.985,6.713c5.734,5.059,16.231,12.843,26.7,12.415c0,0-17.658,11.709-29.431,51.036
	s1.725,89.737,26.691,128.595h193.231c48.409-82.204,39.676-117.704,33.065-133.455c0,0,25.459,12.822,28.132,7.611
	C408.332,81.247,368.466,51.682,357.514,44.293z"/>
<path style="fill:#6D3E1F;" d="M357.514,44.293c-1.247-0.841-1.177-2.694,0.128-3.442c3.064-1.756,8.063-4.605,12.433-7.028
	c2.64-1.464,2.818-5.201,0.324-6.903c-14.368-9.805-44.141-13.386-71.85-12.284c19.262,0.87,37.483,4.724,47.474,12.267
	c2.261,1.707,2.123,5.45-0.269,6.92c-3.944,2.424-8.456,5.275-11.22,7.03c-1.234,0.784-1.299,2.551-0.128,3.426
	c9.857,7.368,45.861,36.945,44.676,75.063c-1.734,3.746-14.092-1.829-20.902-5.258c-1.592-0.802-3.377,0.676-2.863,2.382
	c5.35,17.761,8.312,53.89-31.441,128.72h21.948c48.409-82.204,39.676-117.704,33.065-133.455c0,0,25.459,12.822,28.132,7.611
	C408.332,81.248,368.468,51.683,357.514,44.293z"/>
<path d="M250.457,275.849c-11.415,0-22.83-4.31-31.726-12.93c-2.975-2.882-3.049-7.631-0.166-10.605
	c2.882-2.975,7.63-3.05,10.605-0.167c11.936,11.567,30.637,11.567,42.572,0c2.976-2.882,7.724-2.809,10.605,0.167
	c2.883,2.974,2.809,7.723-0.166,10.605C273.287,271.539,261.872,275.849,250.457,275.849z"/>
<path d="M316.277,212.68c-2.097,0-4.183-0.875-5.666-2.583c-1.374-1.582-3.112-2.453-4.895-2.453s-3.521,0.871-4.895,2.453
	c-2.717,3.129-7.454,3.46-10.581,0.745c-3.127-2.716-3.461-7.453-0.745-10.581c4.205-4.841,10.117-7.618,16.221-7.618
	s12.016,2.776,16.221,7.618c2.716,3.127,2.382,7.865-0.745,10.581C319.772,212.075,318.02,212.68,316.277,212.68z"/>
<path d="M205.286,212.68c-2.097,0-4.183-0.875-5.666-2.583c-1.374-1.582-3.112-2.453-4.895-2.453s-3.521,0.871-4.894,2.453
	c-2.717,3.127-7.454,3.461-10.58,0.746c-3.128-2.716-3.462-7.453-0.746-10.581c4.204-4.841,10.115-7.618,16.219-7.618
	c6.104,0,12.017,2.776,16.222,7.618c2.716,3.127,2.382,7.865-0.745,10.581C208.781,212.075,207.029,212.68,205.286,212.68z"/>
<path style="fill:#F9C295;" d="M346.837,171.95v86.162c0,38.952-62.931,84.688-106.314,78.151
	c-38.851-5.782-86.916-43.992-86.916-78.151v-75.303c4.435-20.805,21.708-51.748,32.08-67.367c1.766-2.655,3.333-4.866,4.605-6.508
	c0.91-1.176,2.744-0.999,3.402,0.334c0.983,1.991,2.203,3.903,3.552,5.707c4.63,6.182,10.799,11.122,14.359,13.704
	c1.268,0.92,3.052,0.122,3.212-1.437l1.255-12.268l0.868-8.524c0.157-1.539,1.905-2.345,3.176-1.463
	c3.057,2.123,8.372,5.764,14.833,9.987c13.879,9.08,33.038,20.855,46.393,26.032c1.209,0.469,2.529-0.319,2.729-1.6
	c1.298-8.331,1.903-17.628,2.18-24.431c0.062-1.553,0.108-2.976,0.141-4.229c0.051-1.889,2.423-2.691,3.607-1.218
	c1.244,1.548,2.745,3.415,4.381,5.447c0.183,0.223,0.365,0.446,0.538,0.67c5.447,6.762,12.193,15.116,15.989,19.724
	c1.06,1.287,3.145,0.819,3.539-0.801c0.462-1.903,0.721-3.978,0.83-6.166c0.213-4.161-0.122-8.748-0.619-13.376
	c-0.208-1.929-0.443-3.867-0.68-5.786c-0.246-1.991,2.247-3.104,3.549-1.578c2.367,2.774,4.786,5.954,7.178,9.476
	C334.222,131.183,343.285,150.719,346.837,171.95z"/>
<path style="fill:#DE9962;" d="M324.702,117.137c-2.392-3.522-4.811-6.702-7.178-9.476c-1.302-1.526-3.795-0.413-3.549,1.578
	c0.237,1.92,0.472,3.858,0.68,5.787c0.497,4.628,0.832,9.215,0.619,13.376c-0.065,1.298-0.19,2.55-0.372,3.756
	c5.316,11.683,9.774,25.343,11.941,39.792v86.162c0,34.925-45.355,75.295-82.768,78.56c43.181,3.66,102.761-40.658,102.761-78.56
	V171.95C343.285,150.719,334.222,131.183,324.702,117.137z"/>
<g>
	<path style="fill:#3A3B4A;" d="M250.457,275.849c-11.415,0-22.83-4.31-31.726-12.93c-2.975-2.882-3.049-7.631-0.166-10.605
		c2.882-2.975,7.63-3.05,10.605-0.167c11.936,11.567,30.637,11.567,42.572,0c2.976-2.882,7.724-2.809,10.605,0.167
		c2.883,2.974,2.809,7.723-0.166,10.605C273.287,271.539,261.872,275.849,250.457,275.849z"/>
	<path style="fill:#3A3B4A;" d="M316.277,212.68c-2.097,0-4.183-0.875-5.666-2.583c-1.374-1.582-3.112-2.453-4.895-2.453
		s-3.521,0.871-4.895,2.453c-2.717,3.129-7.454,3.46-10.581,0.745c-3.127-2.716-3.461-7.453-0.745-10.581
		c4.205-4.841,10.117-7.618,16.221-7.618s12.016,2.776,16.221,7.618c2.716,3.127,2.382,7.865-0.745,10.581
		C319.772,212.075,318.02,212.68,316.277,212.68z"/>
	<path style="fill:#3A3B4A;" d="M205.286,212.68c-2.097,0-4.183-0.875-5.666-2.583c-1.374-1.582-3.112-2.453-4.895-2.453
		s-3.521,0.871-4.894,2.453c-2.717,3.127-7.454,3.461-10.58,0.746c-3.128-2.716-3.462-7.453-0.746-10.581
		c4.204-4.841,10.115-7.618,16.219-7.618c6.104,0,12.017,2.776,16.222,7.618c2.716,3.127,2.382,7.865-0.745,10.581
		C208.781,212.075,207.029,212.68,205.286,212.68z"/>
</g>
<path style="fill:#B4CBDB;" d="M346.837,291.458c-2.977,1.261-6.207,1.958-9.569,1.958h-17.37c-4.143,0-7.5,3.358-7.5,7.5
	s3.357,7.5,7.5,7.5h17.37c3.285,0,6.49-0.405,9.569-1.168V291.458z"/>
<path style="fill:#80B9F9;" d="M286.862,315.282h21.02c7.929,0,14.357-6.428,14.357-14.357l0,0c0-7.929-6.428-14.357-14.357-14.357
	h-21.02c-7.929,0-14.357,6.428-14.357,14.357l0,0C272.505,308.854,278.932,315.282,286.862,315.282z"/>
<g>
</g>
<g>
</g>
<g>
</g>
<g>
</g>
<g>
</g>
<g>
</g>
<g>
</g>
<g>
</g>
<g>
</g>
<g>
</g>
<g>
</g>
<g>
</g>
<g>
</g>
<g>
</g>
<g>
</g>
</svg>
