<svg id="Capa_1" enable-background="new 0 0 512.001 512.001" height="512" viewBox="0 0 512.001 512.001" width="512" xmlns="http://www.w3.org/2000/svg"><g><path d="m373.351 79.421c-.035.1-106.056 87.799-106.16 87.88-2.96 3.03-7.07 4.54-11.19 4.54s-8.23-1.51-11.19-4.54l-106.16-87.88c-14.21-41 17.35-79.42 60.03-79.42h.41c22.01.13 43.6 12.86 56.91 44.73 13.31-31.86 34.89-44.6 56.91-44.73 42.749-.21 74.739 38.17 60.44 79.42z" fill="#fed843"/><path d="m373.351 79.421c-.035.1-106.056 87.799-106.16 87.88-2.96 3.03-7.07 4.54-11.19 4.54v-127.11c13.31-31.86 34.89-44.6 56.91-44.73 42.749-.21 74.739 38.17 60.44 79.42z" fill="#fabe2c"/><path d="m376.8 61.751c-35.39-10.72-75.97 15.17-120.8 76.97-44.83-61.8-85.42-87.69-120.8-76.97-30.85 9.34-44.2 43.09-44.2 58.25 0 33.08 26.92 60 60 60h210c33.08 0 60-26.92 60-60 0-15.16-13.35-48.91-44.2-58.25z" fill="#fabe2c"/><path d="m421 120.001c0 33.08-26.92 60-60 60h-105v-41.28c44.83-61.8 85.41-87.69 120.8-76.97 30.85 9.34 44.2 43.09 44.2 58.25z" fill="#ff9100"/><path d="m451 255.001v242c0 8.28-6.72 15-15 15h-105l-75-24.35-75 24.35h-105c-8.28 0-15-6.72-15-15v-242c0-8.28 6.72-15 15-15h360c8.28 0 15 6.72 15 15z" fill="#7ed8f6"/><path d="m451 255.001v242c0 8.28-6.72 15-15 15h-105l-75-24.35v-247.65h180c8.28 0 15 6.72 15 15z" fill="#3aaaff"/><path d="m481 165.001v90c0 8.28-6.72 15-15 15h-420c-8.28 0-15-6.72-15-15v-90c0-8.28 6.72-15 15-15h135l75 25.67 75-25.67h135c8.28 0 15 6.72 15 15z" fill="#deecf1"/><path d="m481 165.001v90c0 8.28-6.72 15-15 15h-210v-94.33l75-25.67h135c8.28 0 15 6.72 15 15z" fill="#c6e2e7"/><path d="m181 150.001h150v362h-150z" fill="#fed843"/><path d="m256 150.001h75v362h-75z" fill="#fabe2c"/></g></svg>