<?xml version="1.0" encoding="iso-8859-1"?>
<!-- Generator: Adobe Illustrator 19.0.0, SVG Export Plug-In . SVG Version: 6.00 Build 0)  -->
<svg version="1.1" id="Capa_1" xmlns="http://www.w3.org/2000/svg" xmlns:xlink="http://www.w3.org/1999/xlink" x="0px" y="0px"
	 viewBox="0 0 409.616 409.616" style="enable-background:new 0 0 409.616 409.616;" xml:space="preserve">
<rect x="23.992" y="85.783" transform="matrix(-0.895 0.4461 -0.4461 -0.895 469.3511 253.7752)" style="fill:#3EA69B;" width="361.626" height="192.697"/>
<path style="fill:#44C4A1;" d="M300.093,41.681L35.297,173.663c4.859,9.749,0.895,21.592-8.854,26.452l56.628,113.613
	c9.75-4.859,21.593-0.895,26.452,8.854L374.319,190.6c-4.859-9.749-0.895-21.592,8.854-26.452L326.545,50.535
	C316.796,55.395,304.953,51.43,300.093,41.681z"/>
<ellipse transform="matrix(-0.4461 -0.895 0.895 -0.4461 133.153 446.6761)" style="fill:#3EA69B;" cx="204.801" cy="182.134" rx="71.342" ry="52.465"/>
<path style="fill:#44C4A1;" d="M223.076,224.227l-3.6-7.222c-9.504,3.581-19.41,4.035-29.718,1.343l2.932-12.207
	c7.94,2.054,15.073,2.087,21.408,0.075l-9.568-19.195c-8.343,1.937-14.966,2.323-19.877,1.142
	c-4.907-1.173-8.785-4.618-11.631-10.327c-2.841-5.701-3.18-11.362-0.993-16.976c2.184-5.622,6.39-10.191,12.626-13.712
	l-2.464-4.944l6.329-3.154l2.516,5.048c7.516-3.093,15.612-4.032,24.277-2.842l-1.894,12.313c-5.901-0.929-11.567-0.497-17.008,1.31
	l9.271,18.6l0.298-0.148c8.472-2.001,15.248-2.363,20.315-1.109c5.08,1.258,9.055,4.775,11.932,10.548
	c2.878,5.773,3.172,11.487,0.892,17.157c-2.284,5.662-6.7,10.336-13.267,14.021l3.552,7.126L223.076,224.227z M184.262,163.84
	c-0.944,2.32-0.859,4.59,0.241,6.796c1.104,2.214,2.631,3.624,4.593,4.254c1.955,0.634,5.085,0.622,9.37-0.036l-8.532-17.118
	C187.096,159.482,185.206,161.52,184.262,163.84z M226.715,196.841c1.089-2.433,1.06-4.811-0.092-7.121
	c-1.148-2.303-2.787-3.777-4.911-4.408c-2.128-0.618-5.467-0.542-10.014,0.237l8.877,17.811
	C223.575,201.452,225.622,199.285,226.715,196.841z"/>
<g>
	<ellipse style="fill:#3EA69B;" cx="323.947" cy="122.739" rx="13.117" ry="13.117"/>
	<ellipse style="fill:#3EA69B;" cx="85.672" cy="241.509" rx="13.117" ry="13.117"/>
	<rect x="47.99" y="201.677" style="fill:#3EA69B;" width="361.626" height="192.696"/>
</g>
<path style="fill:#44C4A1;" d="M376.734,214.811H80.868c0,10.893-8.831,19.724-19.724,19.724v126.944
	c10.894,0,19.724,8.832,19.724,19.724h295.866c0-10.893,8.831-19.724,19.724-19.724V234.536
	C385.564,234.536,376.734,225.704,376.734,214.811z"/>
<ellipse style="fill:#3EA69B;" cx="228.803" cy="297.984" rx="52.465" ry="71.342"/>
<path style="fill:#44C4A1;" d="M226.372,343.831v-8.07c-10.103-1.035-19.172-5.047-27.196-12.055l8.07-9.617
	c6.19,5.38,12.559,8.592,19.127,9.617v-21.448c-8.331-1.988-14.43-4.597-18.299-7.845c-3.868-3.239-5.803-8.052-5.803-14.43
	c0-6.37,2.222-11.588,6.684-15.636c4.462-4.057,10.265-6.271,17.417-6.639v-5.524h7.071v5.641
	c8.106,0.585,15.771,3.356,22.995,8.286l-7.188,10.175c-4.867-3.464-10.13-5.605-15.807-6.414v20.782h0.333
	c8.475,1.988,14.7,4.687,18.677,8.07c3.985,3.392,5.974,8.313,5.974,14.763c0,6.45-2.285,11.695-6.855,15.753
	c-4.57,4.048-10.607,6.262-18.128,6.63v7.962H226.372z M218.572,272.471c-1.88,1.655-2.816,3.725-2.816,6.19
	c0,2.474,0.738,4.417,2.213,5.857c1.466,1.439,4.273,2.825,8.403,4.147v-19.127C223.052,269.835,220.452,270.816,218.572,272.471z
	 M241.846,320.944c2.06-1.691,3.095-3.832,3.095-6.414c0-2.573-0.81-4.624-2.429-6.136c-1.628-1.502-4.651-2.924-9.068-4.255v19.9
	C236.979,323.67,239.777,322.645,241.846,320.944z"/>
<g>
	<circle style="fill:#3EA69B;" cx="361.938" cy="297.984" r="13.117"/>
	<circle style="fill:#3EA69B;" cx="95.688" cy="297.984" r="13.117"/>
</g>
<g>
</g>
<g>
</g>
<g>
</g>
<g>
</g>
<g>
</g>
<g>
</g>
<g>
</g>
<g>
</g>
<g>
</g>
<g>
</g>
<g>
</g>
<g>
</g>
<g>
</g>
<g>
</g>
<g>
</g>
</svg>
