<?xml version="1.0" encoding="iso-8859-1"?>
<!-- Generator: Adobe Illustrator 19.0.0, SVG Export Plug-In . SVG Version: 6.00 Build 0)  -->
<svg version="1.1" id="Capa_1" xmlns="http://www.w3.org/2000/svg" xmlns:xlink="http://www.w3.org/1999/xlink" x="0px" y="0px"
	 viewBox="0 0 420.669 420.669" style="enable-background:new 0 0 420.669 420.669;" xml:space="preserve">
<path style="fill:#D4E1F4;" d="M202.6,324.016L98.633,220.049c-1.045-0.522-1.567-1.045-2.09-2.09l-44.408,24.555
	c-4.18,2.612-7.314,6.792-7.837,11.494c-0.522,4.702,1.045,9.927,4.18,13.061L155.58,374.171c3.135,3.135,6.792,4.702,10.971,4.702
	c0.522,0,1.567,0,2.09,0c4.702-0.522,9.404-3.657,11.494-7.837l24.555-44.931C203.645,325.584,203.123,325.061,202.6,324.016z"/>
<g>
	<path style="fill:#00BBD3;" d="M157.67,59.135c-4.18,0-7.837,1.045-10.971,3.657l-94.563,79.412
		c-4.18,3.657-6.269,9.404-5.224,15.151c1.045,5.747,5.224,9.927,10.971,12.016l54.857,16.718L234.47,64.359L157.67,59.135z"/>
	<path style="fill:#00BBD3;" d="M254.845,289.012l-17.763,17.763l16.718,54.857c1.567,5.747,6.269,9.404,12.016,10.971
		c1.045,0,2.09,0.522,3.135,0.522c4.702,0,8.882-2.09,12.016-5.747l79.412-94.563c2.612-3.135,4.18-7.314,3.657-11.494
		l-5.747-75.755l-0.522,0.522L254.845,289.012z"/>
</g>
<path style="fill:#3A2C51;" d="M81.915,339.69c-6.269-6.269-16.196-6.269-21.943,0l-40.229,39.706
	c-6.269,6.269-6.269,16.196,0,21.943c3.135,3.135,7.314,4.702,10.971,4.702c4.18,0,7.837-1.567,10.971-4.702l40.229-39.706
	C88.184,355.886,88.184,345.959,81.915,339.69z"/>
<path style="fill:#4DCFE0;" d="M415.759,4.8c-3.657-3.657-8.359-5.224-13.061-4.702L284.625,14.727
	c-3.657,0.522-6.792,2.09-9.404,4.702L232.38,62.269L110.649,184l0,0l-14.106,14.106c-3.135,3.135-4.702,6.792-4.702,10.971
	c0,3.135,1.045,6.269,2.612,8.882l0,0c0.522,1.045,1.045,1.567,2.09,2.09L200.51,324.016c0.522,0.522,1.567,1.045,2.09,2.09
	c2.612,1.567,5.747,2.612,8.882,2.612c4.18,0,7.837-1.567,10.971-4.702l14.106-14.106l0.522-0.522l17.763-17.763l102.922-102.922
	l0.522-0.522l42.841-42.841c2.612-2.612,4.18-5.747,4.702-9.404l14.106-118.596C420.984,12.637,419.417,7.935,415.759,4.8z"/>
<g>
	<path style="fill:#3A2C51;" d="M92.886,372.604l-21.42,21.42c-6.269,6.269-6.269,16.196,0,21.943
		c3.135,3.135,7.314,4.702,10.971,4.702c3.657,0,7.837-1.567,10.971-4.702l21.42-21.42c6.269-6.269,6.269-16.196,0-21.943
		C108.559,366.335,99.155,366.335,92.886,372.604z"/>
	<path style="fill:#3A2C51;" d="M27.057,349.616l21.42-21.42c6.269-6.269,6.269-16.196,0-21.943c-6.269-5.747-16.196-6.269-21.943,0
		l-21.42,21.42c-6.269,6.269-6.269,16.196,0,21.943c3.135,3.135,7.314,4.702,10.971,4.702
		C20.266,354.318,23.923,352.751,27.057,349.616z"/>
</g>
<path style="fill:#D4E1F4;" d="M291.417,193.927c17.241-17.241,17.241-47.02,0-64.261c-17.241-17.241-47.02-17.241-64.261,0
	c-8.359,8.359-13.061,19.853-13.061,32.392c0,12.539,4.702,23.51,13.061,32.392c8.882,8.359,20.898,12.539,32.392,12.539
	C271.041,206.988,283.057,202.808,291.417,193.927z"/>
<g>
</g>
<g>
</g>
<g>
</g>
<g>
</g>
<g>
</g>
<g>
</g>
<g>
</g>
<g>
</g>
<g>
</g>
<g>
</g>
<g>
</g>
<g>
</g>
<g>
</g>
<g>
</g>
<g>
</g>
</svg>
